<?xml version="1.0" encoding="UTF-8" standalone="no"?>
<!DOCTYPE svg PUBLIC "-//W3C//DTD SVG 1.1//EN" "http://www.w3.org/Graphics/SVG/1.1/DTD/svg11.dtd">
<!-- Created with Vectornator (http://vectornator.io/) -->
<svg height="100%" stroke-miterlimit="10" style="fill-rule:nonzero;clip-rule:evenodd;stroke-linecap:round;stroke-linejoin:round;" version="1.1" viewBox="0 0 1024 1024" width="100%" xml:space="preserve" xmlns="http://www.w3.org/2000/svg" xmlns:vectornator="http://vectornator.io" xmlns:xlink="http://www.w3.org/1999/xlink">
<defs/>
<g id="Layer-1" vectornator:layerName="Layer 1">
<path d="M447.095 512.896L590.199 512.896L590.199 660.917L680.361 662.172L519.847 858.4L343.639 662.331L447.095 661.521L447.095 512.896Z" fill="#b71c1c" fill-rule="nonzero" opacity="1" stroke="none"/>
<path d="M971.434 379.583C971.378 387.099 962.587 394.002 962.587 394.002L841.964 517.126C841.964 517.126 835.308 525.284 828.934 525.601C822.56 525.918 816.468 518.394 816.468 518.394L689.128 396.682L686.119 277.116C686.119 277.116 613.196 251.283 524.609 249.945C436.022 248.607 331.77 271.764 331.77 271.764L338.67 398.102L216.017 521.716C216.017 521.716 209.291 530.115 202.543 529.972C195.795 529.829 189.026 521.143 189.026 521.143L63.6915 400.583C63.6915 400.583 53.5408 391.64 52.6344 384.452C51.728 377.263 60.0661 371.828 60.0661 371.828L161.08 264.849C161.08 264.849 351.351 177.986 526.031 177.021C700.71 176.055 858.5 262.589 858.5 262.589L962.811 363.938C962.811 363.938 971.49 372.067 971.434 379.583Z" fill="#b71c1c" fill-rule="nonzero" opacity="1" stroke="none"/>
</g>
</svg>
